<?xml version="1.0" encoding="UTF-8"?>
<svg id="Layer_1" data-name="Layer 1" xmlns="http://www.w3.org/2000/svg" viewBox="0 0 543.34 509.45">
  <defs>
    <style>
      .cls-1 {
        fill: #010101;
      }
    </style>
  </defs>
  <path class="cls-1" d="M347.73,5.97c-5.21,0-11.18.85-17.92,2.53-6.74,1.69-14.32,5.67-22.74,11.94-8.43,6.28-17.76,15.78-28.02,28.48-10.26,12.71-21.82,30.25-34.68,52.6l-52.36,90.49c-5.21,8.88-11.56,18.07-19.06,27.56-7.51,9.49-16,18.76-25.49,27.79-9.5,9.04-19.91,17.61-31.24,25.72-11.33,8.12-23.43,15.08-36.29,20.9,16.54,3.38,33.45,6.28,50.76,8.73,17.3,2.46,33,3.67,47.08,3.67,12.55,0,26.41-2.6,41.57-7.81,15.16-5.2,29.93-11.78,44.33-19.75,14.39-7.96,27.71-16.53,39.96-25.72,12.25-9.19,21.89-17.91,28.94-26.18l2.29.46-69.82,84.98H0l18.83-33.07c20.21,5.51,36.37,8.12,48.46,7.81,12.09-.3,22.66-3.91,31.7-10.79,9.03-6.89,17.84-17.45,26.41-31.7,8.57-14.24,19.44-32.69,32.61-55.35l52.37-90.49c7.65-13.16,16-25.65,25.03-37.44,9.03-11.78,19.22-22.2,30.55-31.24,11.33-9.03,24.04-16.31,38.13-21.82,14.08-5.51,30.01-8.27,47.77-8.27h67.06l-37.21,81.76-3.21.46c3.67-8.27,6.27-16.84,7.81-25.72,1.53-8.88,1.38-17.07-.46-24.58-1.84-7.5-5.51-13.7-11.03-18.6-5.51-4.9-13.48-7.35-23.88-7.35h-3.22Z"/>
  <path class="cls-1" d="M183.43,354.19c0-23.58,6.35-45.63,19.06-66.15,12.7-20.51,30.01-38.42,51.9-53.74,21.89-15.31,47.62-27.4,77.17-36.29,29.55-8.88,61.48-13.32,95.77-13.32,26.94,0,48.84,2.99,65.69,8.96,16.84,5.97,29.4,13.94,37.67,23.89,8.27,9.95,12.47,21.21,12.63,33.76.15,12.56-3.15,25.34-9.88,38.36-6.74,13.02-16.47,25.8-29.17,38.36-12.71,12.56-28.02,23.81-45.94,33.76-17.92,9.95-37.9,17.92-59.95,23.89-22.05,5.97-45.63,8.96-70.74,8.96h-41.8c-7.97,12.86-18.22,26.11-30.78,39.73-12.56,13.63-26.87,25.95-42.95,36.98-16.08,11.02-33.76,20.14-53.06,27.33-19.29,7.2-39.8,10.79-61.55,10.79l18.37-33.07c20.21,5.51,36.36,8.12,48.46,7.81,12.09-.3,22.74-3.91,31.92-10.79,9.19-6.89,18.07-17.45,26.64-31.7,8.57-14.24,19.44-32.69,32.61-55.35l52.37-90.49c5.51-9.79,12.09-19.67,19.75-29.63,7.65-9.95,15.85-19.29,24.58-28.02,8.73-8.72,17.99-16.37,27.79-22.97,9.8-6.58,19.75-11.4,29.86-14.47-3.37-.3-6.82-.53-10.33-.69-3.52-.15-7.12-.23-10.79-.23-29.1,0-54.97,4.06-77.63,12.17-22.66,8.12-41.34,18.68-56.04,31.7-14.7,13.02-25.04,27.79-31.01,44.32-5.97,16.54-6.82,33.07-2.53,49.61l-38.13,16.54ZM331.34,388.64c23.88,0,46.69-3.98,68.44-11.94,21.74-7.96,40.8-18.14,57.19-30.55,16.38-12.4,29.4-26.03,39.04-40.88,9.65-14.85,14.31-29.17,14.01-42.95-.31-13.78-6.43-26.03-18.37-36.75-11.94-10.72-31.09-18.21-57.42-22.51-8.27.61-15.54,2.06-21.82,4.36-6.28,2.3-12.71,6.82-19.29,13.55-6.59,6.74-13.86,16.31-21.82,28.71-7.97,12.4-17.76,28.7-29.4,48.92l-52.36,90.03h41.8Z"/>
</svg>