<?xml version="1.0" encoding="UTF-8"?>
<svg id="Layer_1" data-name="Layer 1" xmlns="http://www.w3.org/2000/svg" viewBox="0 0 1816.44 242.89">
  <defs>
    <style>
      .cls-1 {
        fill: #010101;
      }
    </style>
  </defs>
  <g>
    <path class="cls-1" d="M909.34,96.02c0-12.2,3.29-23.61,9.86-34.22,6.57-10.61,15.53-19.88,26.86-27.81,11.33-7.92,24.64-14.18,39.93-18.78,15.29-4.59,31.81-6.89,49.55-6.89,13.94,0,25.27,1.54,33.99,4.63,8.71,3.09,15.21,7.21,19.49,12.36,4.28,5.15,6.45,10.97,6.54,17.47.08,6.5-1.63,13.11-5.11,19.84-3.49,6.74-8.52,13.35-15.09,19.84-6.58,6.5-14.5,12.32-23.77,17.47-9.27,5.15-19.61,9.27-31.02,12.36-11.41,3.09-23.61,4.64-36.6,4.64h-21.63c-4.12,6.65-9.43,13.51-15.92,20.56-6.5,7.05-13.9,13.43-22.22,19.13-8.32,5.7-17.47,10.42-27.45,14.14-9.98,3.73-20.59,5.59-31.85,5.59l9.51-17.11c10.46,2.85,18.81,4.2,25.07,4.04,6.26-.16,11.76-2.02,16.52-5.59,4.75-3.57,9.35-9.03,13.78-16.4,4.43-7.37,10.06-16.91,16.87-28.64l27.09-46.82c2.85-5.07,6.26-10.18,10.22-15.33,3.96-5.15,8.2-9.98,12.72-14.5,4.52-4.52,9.31-8.47,14.38-11.88,5.07-3.41,10.22-5.9,15.45-7.49-1.75-.16-3.53-.27-5.35-.36-1.82-.08-3.68-.12-5.59-.12-15.05,0-28.44,2.1-40.16,6.3-11.73,4.2-21.39,9.67-29,16.4-7.6,6.74-12.95,14.38-16.04,22.93-3.09,8.56-3.53,17.11-1.31,25.67l-19.73,8.56ZM985.87,113.84c12.36,0,24.16-2.06,35.41-6.18,11.25-4.12,21.11-9.39,29.59-15.8,8.47-6.42,15.21-13.47,20.2-21.15,4.99-7.68,7.41-15.09,7.25-22.22-.16-7.13-3.33-13.47-9.51-19.01-6.18-5.54-16.08-9.43-29.71-11.65-4.28.32-8.04,1.07-11.29,2.26-3.25,1.19-6.58,3.53-9.98,7.01-3.41,3.49-7.17,8.44-11.29,14.85-4.12,6.42-9.19,14.85-15.21,25.31l-27.09,46.58h21.63Z"/>
    <path class="cls-1" d="M1138.21,147.59c-3.17,5.23-4.84,8.71-4.99,10.46-.16,1.75.63,2.3,2.38,1.66,1.74-.63,4.08-2.18,7.01-4.64,2.93-2.45,6.06-5.19,9.39-8.2,3.33-3.01,6.5-6.1,9.51-9.27,3.01-3.17,5.31-5.7,6.89-7.61l1.19.24c-3.33,4.12-7.45,8.83-12.36,14.14-4.91,5.31-9.74,10.34-14.5,15.09s-9.11,8.76-13.07,12c-3.96,3.25-6.74,4.87-8.32,4.87-6.18,0-8.99-2.65-8.44-7.96.55-5.31,3.36-12.24,8.44-20.79l22.82-39.45c-6.34,7.45-13.71,15.25-22.1,23.41-8.4,8.16-16.92,15.69-25.55,22.58-8.64,6.89-16.88,12.56-24.72,16.99-7.84,4.44-14.46,6.65-19.84,6.65-6.66,0-11.01-1.94-13.07-5.82-2.06-3.88-2.26-8.95-.59-15.21,1.66-6.26,4.99-13.31,9.98-21.15,4.99-7.84,11.17-15.69,18.54-23.53,7.37-7.84,15.76-15.25,25.19-22.22,9.42-6.97,19.45-12.83,30.06-17.59,6.18-2.69,12.24-4.79,18.18-6.3,5.94-1.5,11.53-2.26,16.75-2.26s9.94.68,14.14,2.02c4.2,1.35,7.64,3.53,10.34,6.54l-43.25,75.34ZM1161.03,78.19c-4.28-3.48-9.83-5.78-16.64-6.89-6.81-1.11-14.18,0-22.1,3.33-6.18,2.7-12.36,6.74-18.54,12.12-6.18,5.39-12,11.33-17.47,17.82-5.47,6.5-10.34,13.23-14.62,20.2-4.28,6.97-7.45,13.31-9.51,19.01-2.06,5.7-2.85,10.38-2.38,14.02.48,3.65,2.62,5.47,6.42,5.47,4.28,0,9.15-1.31,14.62-3.92,5.47-2.61,11.13-6.02,16.99-10.22,5.86-4.2,11.72-8.99,17.59-14.38,5.86-5.38,11.37-10.85,16.52-16.4,5.15-5.54,9.74-10.89,13.78-16.04,4.04-5.15,7.17-9.7,9.39-13.67l5.94-10.46Z"/>
    <path class="cls-1" d="M1205.94,93.88c3.01-5.23,4.59-8.71,4.75-10.46.16-1.74-.59-2.29-2.26-1.66-1.66.64-3.96,2.18-6.89,4.64-2.93,2.46-6.02,5.19-9.27,8.2-3.25,3.01-6.34,6.1-9.27,9.27-2.93,3.17-5.27,5.7-7.01,7.61l-1.66-.24c3.48-4.12,7.68-8.83,12.6-14.14,4.91-5.31,9.78-10.3,14.62-14.97,4.83-4.67,9.23-8.63,13.19-11.88,3.96-3.25,6.73-4.87,8.32-4.87,3.64,0,6.02.91,7.13,2.73,1.11,1.82,1.39,4.2.83,7.13-.56,2.93-1.75,6.26-3.57,9.98-1.82,3.73-3.84,7.49-6.06,11.29,4.43-4.59,9.19-8.59,14.26-12,5.07-3.41,10.61-6.45,16.64-9.15,7.13-3.17,13.78-5.58,19.96-7.25,6.18-1.66,11.01-2.5,14.5-2.5,4.75,0,8.16.52,10.22,1.55,2.06,1.03,3.05,2.3,2.97,3.8-.08,1.51-.87,3.13-2.38,4.87-1.51,1.75-3.41,3.37-5.71,4.87-2.3,1.51-4.75,2.77-7.37,3.8-2.61,1.03-4.87,1.55-6.77,1.55-2.85,0-5.74-.39-8.67-1.19-2.93-.79-5.67-1.66-8.2-2.62-2.85-1.11-5.7-2.45-8.56-4.04-3.33,1.43-6.69,3.05-10.1,4.87-3.41,1.82-6.93,4.16-10.58,7.01-3.65,2.85-7.29,6.42-10.93,10.69-3.65,4.28-7.37,9.59-11.17,15.92l-33.98,59.65h-16.87l47.29-82.47Z"/>
    <path class="cls-1" d="M1310.27,65.6c5.39,0,11.01-.99,16.88-2.97,5.86-1.98,11.6-4.75,17.23-8.32,5.62-3.56,10.93-7.92,15.92-13.07,4.99-5.15,9.31-10.81,12.95-16.99h1.66c-4.12,6.97-8.16,13.87-12.12,20.68-3.96,6.81-8,13.71-12.12,20.68h38.26l-1.66,3.33h-38.26l-45.39,78.19c-3.33,5.86-5.27,10.14-5.82,12.83-.56,2.7-.04,4.12,1.55,4.28,1.58.16,4.08-.71,7.49-2.62,3.41-1.9,7.33-4.52,11.76-7.84,4.43-3.33,9.27-7.13,14.5-11.41,5.23-4.28,10.53-8.71,15.92-13.31l.71.71c-4.75,4.12-10.02,8.88-15.81,14.26-5.78,5.39-11.41,10.46-16.87,15.21s-10.46,8.79-14.97,12.12c-4.52,3.33-7.8,4.99-9.86,4.99-4.12,0-7.09-.83-8.91-2.5-1.82-1.66-2.81-3.88-2.97-6.65-.16-2.77.44-5.9,1.78-9.39,1.34-3.48,3.05-7.05,5.11-10.7l45.87-79.85h-23.77l.95-1.66Z"/>
    <path class="cls-1" d="M1388.46,93.88c3.01-5.23,4.63-8.75,4.87-10.58.24-1.82-.48-2.38-2.14-1.66-1.66.71-4,2.26-7.01,4.63-3.01,2.38-6.14,5.11-9.39,8.2-3.25,3.09-6.38,6.18-9.39,9.27-3.01,3.09-5.39,5.58-7.13,7.49l-1.19-.24c3.48-4.12,7.68-8.83,12.6-14.14,4.91-5.31,9.78-10.3,14.62-14.97,4.83-4.67,9.19-8.63,13.07-11.88,3.88-3.25,6.61-4.87,8.2-4.87,6.18,0,8.95,2.61,8.32,7.84-.64,5.23-3.57,12.2-8.79,20.91l-22.34,39.45c6.18-7.29,13.43-15.05,21.75-23.29,8.32-8.24,16.79-15.76,25.43-22.58,8.63-6.81,16.91-12.48,24.84-16.99,7.92-4.52,14.58-6.77,19.96-6.77,4.28,0,7.49.99,9.62,2.97,2.14,1.98,3.25,4.79,3.33,8.44.08,3.65-.75,7.96-2.5,12.95-1.75,4.99-4.36,10.42-7.84,16.28l-24.95,43.26c-3.17,5.23-4.84,8.71-4.99,10.46-.16,1.75.63,2.3,2.38,1.66,1.74-.63,4.08-2.18,7.01-4.64,2.93-2.45,6.06-5.19,9.39-8.2,3.33-3.01,6.45-6.1,9.39-9.27,2.93-3.17,5.26-5.7,7.01-7.61l1.19.24c-3.33,4.12-7.45,8.83-12.36,14.14-4.91,5.31-9.74,10.34-14.5,15.09s-9.11,8.76-13.07,12c-3.96,3.25-6.74,4.87-8.32,4.87-6.18,0-8.99-2.65-8.44-7.96.55-5.31,3.36-12.24,8.44-20.79l24.95-43.26c5.23-9.03,7.64-15.64,7.25-19.84-.4-4.2-2.82-6.3-7.25-6.3s-9.15,1.31-14.62,3.92c-5.47,2.61-11.13,6.02-16.99,10.22-5.86,4.2-11.73,8.99-17.59,14.38-5.86,5.39-11.41,10.85-16.64,16.4-5.23,5.55-9.9,10.93-14.02,16.16-4.12,5.23-7.29,9.74-9.51,13.55l-13.07,23.53h-16.64l47.06-82.47Z"/>
    <path class="cls-1" d="M1562.19,65.84c6.65-1.43,13.35-2.14,20.08-2.14s12.67.83,17.82,2.5c5.15,1.66,9.03,4.28,11.65,7.84,2.61,3.57,3.05,8.12,1.31,13.67-.95,3.17-3.56,6.77-7.84,10.81s-10.78,7.92-19.49,11.65c-8.71,3.73-19.81,6.85-33.27,9.39-13.47,2.54-29.87,3.89-49.2,4.04-2.54,6.02-4.16,11.76-4.87,17.23-.71,5.47-.24,10.34,1.43,14.62,1.66,4.28,4.59,7.69,8.79,10.22,4.2,2.54,9.94,3.8,17.23,3.8,5.7,0,12.04-1.27,19.01-3.8,6.97-2.53,13.78-5.78,20.44-9.74,6.66-3.96,12.87-8.24,18.66-12.83,5.78-4.59,10.42-8.95,13.9-13.07l1.19.24c-5.39,6.5-11.57,12.6-18.54,18.3-6.97,5.7-14.22,10.74-21.75,15.09-7.53,4.36-15.09,7.81-22.7,10.34-7.61,2.53-14.74,3.8-21.39,3.8-11.41,0-19.77-2.38-25.07-7.13-5.31-4.75-8.16-10.81-8.55-18.18-.39-7.37,1.43-15.49,5.47-24.36,4.04-8.87,9.7-17.47,16.99-25.79,7.28-8.32,15.96-15.76,26.02-22.34,10.06-6.57,20.95-11.29,32.68-14.14ZM1504.68,121.21c19.01-.16,34.7-1.82,47.06-4.99,12.36-3.17,21.94-6.97,28.76-11.41,6.81-4.44,11.09-9.15,12.83-14.14,1.74-4.99,1.54-9.39-.59-13.19-2.14-3.8-5.94-6.61-11.41-8.44-5.47-1.82-12.08-1.86-19.84-.12-6.02,1.43-11.85,3.84-17.47,7.25-5.63,3.41-10.93,7.49-15.92,12.24-4.99,4.75-9.51,9.98-13.55,15.69s-7.33,11.41-9.86,17.11Z"/>
    <path class="cls-1" d="M1638.95,93.88c3.01-5.23,4.59-8.71,4.75-10.46.16-1.74-.59-2.29-2.26-1.66-1.66.64-3.96,2.18-6.89,4.64-2.93,2.46-6.02,5.19-9.27,8.2-3.25,3.01-6.34,6.1-9.27,9.27-2.93,3.17-5.27,5.7-7.01,7.61l-1.66-.24c3.48-4.12,7.68-8.83,12.6-14.14,4.91-5.31,9.78-10.3,14.62-14.97,4.83-4.67,9.23-8.63,13.19-11.88,3.96-3.25,6.73-4.87,8.32-4.87,3.64,0,6.02.91,7.13,2.73,1.11,1.82,1.39,4.2.83,7.13-.56,2.93-1.75,6.26-3.57,9.98-1.82,3.73-3.84,7.49-6.06,11.29,4.43-4.59,9.19-8.59,14.26-12,5.07-3.41,10.61-6.45,16.64-9.15,7.13-3.17,13.78-5.58,19.96-7.25,6.18-1.66,11.01-2.5,14.5-2.5,4.75,0,8.16.52,10.22,1.55,2.06,1.03,3.05,2.3,2.97,3.8-.08,1.51-.87,3.13-2.38,4.87-1.51,1.75-3.41,3.37-5.71,4.87-2.3,1.51-4.75,2.77-7.37,3.8-2.61,1.03-4.87,1.55-6.77,1.55-2.85,0-5.74-.39-8.67-1.19-2.93-.79-5.67-1.66-8.2-2.62-2.85-1.11-5.7-2.45-8.56-4.04-3.33,1.43-6.69,3.05-10.1,4.87-3.41,1.82-6.93,4.16-10.58,7.01-3.65,2.85-7.29,6.42-10.93,10.69-3.65,4.28-7.37,9.59-11.17,15.92l-33.98,59.65h-16.87l47.29-82.47Z"/>
    <path class="cls-1" d="M1782.74,63.46c6.65,0,12.48.79,17.47,2.38,4.99,1.59,8.67,3.41,11.05,5.47,4.12,3.65,5.78,6.97,4.99,9.98-.79,3.01-2.7,5.43-5.7,7.25-3.01,1.82-6.42,2.93-10.22,3.33-3.8.4-6.58-.12-8.32-1.55-1.59-1.27-2.97-3.21-4.16-5.82-1.19-2.61-2.18-5.19-2.97-7.72-.95-2.85-1.75-6.02-2.38-9.51-2.7-.48-5.98-.55-9.86-.24-3.89.32-7.88,1.15-12,2.5-4.12,1.35-8.04,3.21-11.76,5.58-3.72,2.38-6.62,5.39-8.67,9.03-3.17,5.55-3.92,10.1-2.26,13.67,1.66,3.56,4.55,6.65,8.67,9.27,4.12,2.62,8.87,4.91,14.26,6.89,5.38,1.98,10.14,4.28,14.26,6.89,4.12,2.62,6.97,5.7,8.55,9.27,1.58,3.56.79,8.12-2.38,13.67-3.17,5.55-7.13,10.42-11.88,14.62-4.75,4.2-9.98,7.69-15.69,10.46-5.71,2.77-11.65,4.87-17.83,6.3s-12.28,2.14-18.3,2.14c-6.5,0-11.92-.83-16.28-2.5-4.36-1.66-7.88-3.6-10.58-5.82-3.17-2.53-5.62-5.39-7.37-8.56l7.13-14.97c3.65,6.18,8.99,11.41,16.04,15.69,7.05,4.28,14.42,7.01,22.1,8.2,7.68,1.19,15.17.56,22.46-1.9,7.29-2.46,12.99-7.33,17.11-14.62,2.38-4.28,2.5-7.8.36-10.58-2.14-2.77-5.39-5.31-9.74-7.6-4.36-2.3-9.19-4.55-14.5-6.77-5.31-2.22-9.94-4.79-13.9-7.72-3.96-2.93-6.62-6.54-7.96-10.81-1.35-4.28-.2-9.58,3.45-15.92,3.01-5.23,6.85-9.74,11.53-13.55,4.67-3.8,9.62-6.93,14.85-9.39,5.23-2.45,10.53-4.24,15.92-5.35,5.39-1.11,10.22-1.66,14.5-1.66Z"/>
  </g>
  <g>
    <path class="cls-1" d="M179.91,17.82c-2.7,0-5.79.44-9.27,1.31-3.49.87-7.41,2.93-11.76,6.18-4.36,3.25-9.19,8.16-14.5,14.74-5.31,6.58-11.29,15.65-17.94,27.21l-27.09,46.82c-2.7,4.6-5.98,9.35-9.86,14.26-3.88,4.91-8.28,9.71-13.19,14.38-4.91,4.68-10.3,9.11-16.16,13.31-5.86,4.2-12.12,7.8-18.77,10.81,8.55,1.75,17.31,3.25,26.26,4.52,8.95,1.27,17.07,1.9,24.36,1.9,6.49,0,13.67-1.34,21.51-4.04,7.84-2.69,15.48-6.1,22.93-10.22,7.45-4.12,14.34-8.56,20.68-13.31,6.34-4.75,11.33-9.27,14.97-13.55l1.19.24-36.12,43.97H0l9.74-17.11c10.46,2.85,18.81,4.2,25.07,4.04,6.26-.16,11.72-2.02,16.4-5.59,4.67-3.57,9.23-9.03,13.67-16.4,4.43-7.37,10.06-16.91,16.87-28.64l27.09-46.82c3.96-6.81,8.28-13.27,12.95-19.37,4.67-6.1,9.94-11.49,15.81-16.16,5.86-4.67,12.44-8.44,19.72-11.29,7.29-2.85,15.53-4.28,24.72-4.28h34.7l-19.25,42.3-1.66.24c1.9-4.28,3.25-8.71,4.04-13.31.79-4.59.71-8.83-.24-12.72-.95-3.88-2.85-7.09-5.7-9.62-2.85-2.53-6.97-3.8-12.36-3.8h-1.66Z"/>
    <path class="cls-1" d="M265.94,147.59c-3.17,5.23-4.84,8.71-4.99,10.46-.16,1.75.63,2.3,2.38,1.66,1.74-.63,4.08-2.18,7.01-4.64,2.93-2.45,6.06-5.19,9.39-8.2,3.33-3.01,6.5-6.1,9.51-9.27,3.01-3.17,5.31-5.7,6.89-7.61l1.19.24c-3.33,4.12-7.45,8.83-12.36,14.14-4.91,5.31-9.74,10.34-14.5,15.09s-9.11,8.76-13.07,12c-3.96,3.25-6.74,4.87-8.32,4.87-6.18,0-8.99-2.65-8.44-7.96.55-5.31,3.36-12.24,8.44-20.79l22.82-39.45c-6.34,7.45-13.71,15.25-22.1,23.41-8.4,8.16-16.92,15.69-25.55,22.58-8.64,6.89-16.88,12.56-24.72,16.99-7.84,4.44-14.46,6.65-19.84,6.65-6.66,0-11.01-1.94-13.07-5.82-2.06-3.88-2.26-8.95-.59-15.21,1.66-6.26,4.99-13.31,9.98-21.15,4.99-7.84,11.17-15.69,18.54-23.53,7.37-7.84,15.76-15.25,25.19-22.22,9.42-6.97,19.45-12.83,30.06-17.59,6.18-2.69,12.24-4.79,18.18-6.3,5.94-1.5,11.53-2.26,16.75-2.26s9.94.68,14.14,2.02c4.2,1.35,7.64,3.53,10.34,6.54l-43.25,75.34ZM288.76,78.19c-4.28-3.48-9.83-5.78-16.64-6.89-6.81-1.11-14.18,0-22.1,3.33-6.18,2.7-12.36,6.74-18.54,12.12-6.18,5.39-12,11.33-17.47,17.82-5.47,6.5-10.34,13.23-14.62,20.2-4.28,6.97-7.45,13.31-9.51,19.01-2.06,5.7-2.85,10.38-2.38,14.02.48,3.65,2.62,5.47,6.42,5.47,4.28,0,9.15-1.31,14.62-3.92,5.47-2.61,11.13-6.02,16.99-10.22,5.86-4.2,11.72-8.99,17.59-14.38,5.86-5.38,11.37-10.85,16.52-16.4,5.15-5.54,9.74-10.89,13.78-16.04,4.04-5.15,7.17-9.7,9.39-13.67l5.94-10.46Z"/>
    <path class="cls-1" d="M333.67,93.88c3.01-5.23,4.63-8.75,4.87-10.58.24-1.82-.48-2.38-2.14-1.66-1.66.71-4,2.26-7.01,4.63-3.01,2.38-6.14,5.11-9.39,8.2-3.25,3.09-6.38,6.18-9.39,9.27-3.01,3.09-5.39,5.58-7.13,7.49l-1.19-.24c3.48-4.12,7.68-8.83,12.6-14.14,4.91-5.31,9.78-10.3,14.62-14.97,4.83-4.67,9.19-8.63,13.07-11.88,3.88-3.25,6.61-4.87,8.2-4.87,6.18,0,8.95,2.61,8.32,7.84-.64,5.23-3.57,12.2-8.79,20.91l-22.34,39.45c6.18-7.29,13.43-15.05,21.75-23.29,8.32-8.24,16.79-15.76,25.43-22.58,8.63-6.81,16.91-12.48,24.84-16.99,7.92-4.52,14.58-6.77,19.96-6.77,4.28,0,7.49.99,9.62,2.97,2.14,1.98,3.25,4.79,3.33,8.44.08,3.65-.75,7.96-2.5,12.95-1.75,4.99-4.36,10.42-7.84,16.28l-24.95,43.26c-3.17,5.23-4.84,8.71-4.99,10.46-.16,1.75.63,2.3,2.38,1.66,1.74-.63,4.08-2.18,7.01-4.64,2.93-2.45,6.06-5.19,9.39-8.2,3.33-3.01,6.45-6.1,9.39-9.27,2.93-3.17,5.26-5.7,7.01-7.61l1.19.24c-3.33,4.12-7.45,8.83-12.36,14.14-4.91,5.31-9.74,10.34-14.5,15.09-4.75,4.75-9.11,8.76-13.07,12-3.96,3.25-6.74,4.87-8.32,4.87-6.18,0-8.99-2.65-8.44-7.96.55-5.31,3.36-12.24,8.44-20.79l24.95-43.26c5.23-9.03,7.64-15.64,7.25-19.84-.4-4.2-2.82-6.3-7.25-6.3s-9.15,1.31-14.62,3.92c-5.47,2.61-11.13,6.02-16.99,10.22-5.86,4.2-11.73,8.99-17.59,14.38-5.86,5.39-11.41,10.85-16.64,16.4-5.23,5.55-9.9,10.93-14.02,16.16-4.12,5.23-7.29,9.74-9.51,13.55l-13.07,23.53h-16.64l47.06-82.47Z"/>
    <path class="cls-1" d="M524.51,147.59c-3.17,5.23-4.84,8.71-4.99,10.46-.16,1.75.63,2.3,2.38,1.66,1.74-.63,4.12-2.18,7.13-4.64,3.01-2.45,6.18-5.19,9.51-8.2,3.33-3.01,6.49-6.1,9.51-9.27,3.01-3.17,5.31-5.7,6.89-7.61l1.19.24c-3.49,4.12-7.65,8.83-12.48,14.14-4.84,5.31-9.62,10.34-14.38,15.09s-9.11,8.76-13.07,12c-3.96,3.25-6.74,4.87-8.32,4.87-3.17,0-5.43-.71-6.77-2.14-1.35-1.43-1.94-3.37-1.78-5.82.16-2.46.99-5.47,2.5-9.03,1.5-3.56,3.52-7.49,6.06-11.76l22.58-39.45c-6.34,7.45-13.67,15.25-21.98,23.41-8.32,8.16-16.8,15.69-25.43,22.58-8.64,6.89-16.88,12.56-24.72,16.99-7.84,4.44-14.46,6.65-19.84,6.65-6.66,0-10.97-1.94-12.95-5.82-1.98-3.88-2.14-8.95-.48-15.21,1.66-6.26,4.95-13.31,9.86-21.15,4.91-7.84,11.05-15.69,18.42-23.53,7.37-7.84,15.72-15.25,25.07-22.22,9.35-6.97,19.33-12.83,29.95-17.59,8.87-3.8,17.39-6.38,25.55-7.72,8.16-1.34,15.25-1.15,21.27.59l1.66-2.61c3.96-6.81,9.19-13.9,15.69-21.27,6.49-7.37,14.06-14.1,22.7-20.2,8.63-6.1,18.18-11.13,28.64-15.09C634.31,1.98,645.4,0,657.13,0l-9.98,17.35c-7.13-1.9-13.23-3.21-18.3-3.92-5.07-.71-9.59-.67-13.55.12-3.96.79-7.53,2.3-10.69,4.52-3.17,2.22-6.3,5.35-9.39,9.39-3.09,4.04-6.34,8.95-9.74,14.73-3.41,5.79-7.33,12.56-11.76,20.32l-49.2,85.08ZM541.62,88.65l6.18-10.46c-4.6-3.48-10.26-5.78-16.99-6.89-6.74-1.11-14.14,0-22.22,3.33-6.18,2.7-12.36,6.74-18.54,12.12-6.18,5.39-11.96,11.33-17.35,17.82-5.39,6.5-10.18,13.23-14.38,20.2-4.2,6.97-7.33,13.31-9.39,19.01-2.06,5.7-2.89,10.38-2.5,14.02.39,3.65,2.41,5.47,6.06,5.47,4.28,0,9.15-1.31,14.62-3.92,5.47-2.61,11.13-6.02,16.99-10.22,5.86-4.2,11.76-8.99,17.71-14.38,5.94-5.38,11.49-10.85,16.64-16.4,5.15-5.54,9.74-10.89,13.78-16.04,4.04-5.15,7.17-9.7,9.39-13.67Z"/>
    <path class="cls-1" d="M592.48,93.88c3.01-5.23,4.63-8.75,4.87-10.58.24-1.82-.52-2.38-2.26-1.66-1.75.71-4.12,2.26-7.13,4.63-3.01,2.38-6.14,5.11-9.39,8.2-3.25,3.09-6.38,6.18-9.39,9.27-3.01,3.09-5.39,5.58-7.13,7.49l-1.19-.24c3.48-4.12,7.68-8.83,12.6-14.14,4.91-5.31,9.74-10.3,14.5-14.97,4.75-4.67,9.11-8.63,13.07-11.88,3.96-3.25,6.73-4.87,8.32-4.87,6.18,0,8.91,2.61,8.2,7.84-.71,5.23-3.61,12.2-8.67,20.91l-30.66,53.71c-3.17,5.23-4.83,8.71-4.99,10.46-.16,1.75.63,2.3,2.38,1.66,1.74-.63,4.12-2.18,7.13-4.64,3.01-2.45,6.14-5.19,9.39-8.2,3.25-3.01,6.38-6.1,9.39-9.27,3.01-3.17,5.39-5.7,7.13-7.61l1.19.24c-3.49,4.12-7.65,8.83-12.48,14.14-4.83,5.31-9.67,10.34-14.5,15.09-4.83,4.75-9.23,8.76-13.19,12-3.96,3.25-6.73,4.87-8.32,4.87-6.18,0-8.95-2.65-8.32-7.96.64-5.31,3.57-12.24,8.79-20.79l30.66-53.71ZM640.96,23.77c3.01,0,4.99,1.08,5.94,3.25.95,2.16.55,4.76-1.19,7.81-1.9,3.04-4.48,5.65-7.72,7.81-3.25,2.16-6.38,3.24-9.39,3.24s-4.96-1.08-5.82-3.24c-.87-2.16-.36-4.76,1.55-7.81,1.74-3.04,4.16-5.64,7.25-7.81,3.09-2.16,6.22-3.25,9.39-3.25Z"/>
    <path class="cls-1" d="M645.72,93.88c3.01-5.23,4.63-8.75,4.87-10.58.24-1.82-.48-2.38-2.14-1.66-1.66.71-4,2.26-7.01,4.63-3.01,2.38-6.14,5.11-9.39,8.2-3.25,3.09-6.38,6.18-9.39,9.27-3.01,3.09-5.39,5.58-7.13,7.49l-1.19-.24c3.48-4.12,7.68-8.83,12.6-14.14,4.91-5.31,9.78-10.3,14.62-14.97,4.83-4.67,9.19-8.63,13.07-11.88,3.88-3.25,6.61-4.87,8.2-4.87,6.18,0,8.95,2.61,8.32,7.84-.64,5.23-3.57,12.2-8.79,20.91l-22.34,39.45c6.18-7.29,13.43-15.05,21.75-23.29,8.32-8.24,16.79-15.76,25.43-22.58,8.63-6.81,16.91-12.48,24.84-16.99,7.92-4.52,14.58-6.77,19.96-6.77,4.28,0,7.49.99,9.62,2.97,2.14,1.98,3.25,4.79,3.33,8.44.08,3.65-.75,7.96-2.5,12.95-1.75,4.99-4.36,10.42-7.84,16.28l-24.95,43.26c-3.17,5.23-4.84,8.71-4.99,10.46-.16,1.75.63,2.3,2.38,1.66,1.74-.63,4.08-2.18,7.01-4.64,2.93-2.45,6.06-5.19,9.39-8.2,3.33-3.01,6.45-6.1,9.39-9.27,2.93-3.17,5.26-5.7,7.01-7.61l1.19.24c-3.33,4.12-7.45,8.83-12.36,14.14-4.91,5.31-9.74,10.34-14.5,15.09-4.75,4.75-9.11,8.76-13.07,12-3.96,3.25-6.74,4.87-8.32,4.87-6.18,0-8.99-2.65-8.44-7.96.55-5.31,3.36-12.24,8.44-20.79l24.95-43.26c5.23-9.03,7.64-15.64,7.25-19.84-.4-4.2-2.82-6.3-7.25-6.3s-9.15,1.31-14.62,3.92c-5.47,2.61-11.13,6.02-16.99,10.22-5.86,4.2-11.73,8.99-17.59,14.38-5.86,5.39-11.41,10.85-16.64,16.4-5.23,5.55-9.9,10.93-14.02,16.16-4.12,5.23-7.29,9.74-9.51,13.55l-13.07,23.53h-16.64l47.06-82.47Z"/>
    <path class="cls-1" d="M819.45,178.96c-3.8,6.5-8.88,13.47-15.21,20.91-6.34,7.45-13.35,14.38-21.03,20.8-7.69,6.42-15.65,11.72-23.88,15.92-8.24,4.2-16.08,6.3-23.53,6.3-15.21,0-26.38-1.9-33.51-5.71-7.13-3.8-10.38-8.79-9.74-14.97.64-6.18,5.11-13.27,13.43-21.27,8.32-8,20.48-16.28,36.48-24.84-4.43-2.22-6.73-5.82-6.89-10.81-.16-4.99,1.19-10.73,4.04-17.23,3.33-7.61,7.96-15.17,13.9-22.7,5.94-7.52,12.6-14.65,19.96-21.39,7.37-6.73,15.21-12.83,23.53-18.3,8.32-5.47,16.52-9.94,24.6-13.43,6.18-2.69,12.28-4.79,18.3-6.3,6.02-1.5,11.65-2.26,16.87-2.26s9.9.68,14.02,2.02c4.12,1.35,7.52,3.53,10.22,6.54l-61.55,106.71ZM746.01,177.3c-13.15,7.45-22.66,14.85-28.52,22.22-5.86,7.37-8.83,14.06-8.91,20.08-.08,6.02,2.5,10.89,7.72,14.62,5.23,3.72,12.36,5.59,21.39,5.59,6.97,0,13.63-2.06,19.96-6.18,6.34-4.12,12.28-9.23,17.82-15.33,5.55-6.1,10.61-12.68,15.21-19.72,4.59-7.05,8.63-13.59,12.12-19.61l40.88-70.82c-6.34,7.45-13.67,15.25-21.98,23.41-8.32,8.16-16.8,15.69-25.43,22.58-8.64,6.89-16.92,12.56-24.84,16.99-7.93,4.44-14.58,6.65-19.96,6.65-.95,0-1.9-.04-2.85-.12-.95-.08-1.82-.2-2.61-.36ZM860.8,78.19c-4.28-3.48-9.86-5.78-16.75-6.89-6.89-1.11-14.22,0-21.98,3.33-6.18,2.7-12.4,6.74-18.66,12.12-6.26,5.39-12.12,11.33-17.59,17.82-5.47,6.5-10.3,13.23-14.5,20.2-4.2,6.97-7.37,13.31-9.51,19.01-2.14,5.7-2.97,10.38-2.5,14.02.48,3.65,2.62,5.47,6.42,5.47,4.28,0,9.15-1.31,14.62-3.92,5.47-2.61,11.13-6.02,16.99-10.22,5.86-4.2,11.72-8.99,17.59-14.38,5.86-5.38,11.37-10.85,16.52-16.4,5.15-5.54,9.78-10.89,13.9-16.04,4.12-5.15,7.28-9.7,9.51-13.67l5.94-10.46Z"/>
  </g>
</svg>